<svg xmlns="http://www.w3.org/2000/svg" width="100%" viewBox="0 0 240 400">
  <title>framoCard</title>
  <rect width="240" height="400" style="fill: #fff"/>
  <g>
    <path d="M147,73V7h86" style="fill: none;stroke: #000;stroke-linecap: square;stroke-width: 3px"/>
    <path d="M147,35.05h73.1" style="fill: none;stroke: #000;stroke-linecap: square;stroke-width: 3px"/>
  </g>
  <g>
    <path d="M7,153V87H233v33H7" style="fill: none;stroke: #000;stroke-linecap: square;stroke-width: 3px"/>
    <path d="M162.375,120,233,153" style="fill: none;stroke: #000;stroke-linecap: square;stroke-width: 3px"/>
  </g>
  <g>
    <path d="M67,333,90,167h0l23,166" style="fill: none;stroke: #000;stroke-linecap: square;stroke-width: 3px"/>
    <path d="M78.5,250h23" style="fill: none;stroke: #000;stroke-linecap: square;stroke-width: 3px"/>
  </g>
  <path d="M127,253V167l53,36.12L233,167v86" style="fill: none;stroke: #000;stroke-linecap: square;stroke-width: 3px"/>
  <path d="M7.5,392.5h0v-45h225v45H7.5Z" style="fill: none;stroke: #000;stroke-linecap: square;stroke-width: 3px"/>
  <path d="M127.5,332.5h0v-65h105v65h-105Z" style="stroke: #000;stroke-linecap: square;stroke-width: 3px"/>
  <rect x="7.5" y="6.5" width="125" height="67" transform="translate(140 80) rotate(180)" style="stroke: #000;stroke-linecap: square;stroke-width: 3px"/>
  <rect x="7.5" y="167.5" width="45" height="165" transform="translate(60 500) rotate(180)" style="stroke: #000;stroke-linecap: square;stroke-width: 3px"/>
</svg>
