<svg xmlns="http://www.w3.org/2000/svg" width="1200" height="750" viewBox="0 0 1200 750">
  <title>createGylph</title>
  <path d="M463.9348,421.3393h-106.53V197.13a11.0651,11.0651,0,0,0-11.0652-11.0652H228.6607A11.0651,11.0651,0,0,0,217.5955,197.13V421.3393h-106.53A11.0651,11.0651,0,0,0,100,432.4045V550h22.13V443.47H452.87V550H475V432.4045A11.0651,11.0651,0,0,0,463.9348,421.3393ZM335.2741,208.1956V421.3393H239.7259V208.1956Z" style="fill: #00b694"/>
  <path d="M1041.8855,580.6488H963.7633V416.229a8.1144,8.1144,0,0,0-8.1145-8.1145H869.3512a8.1144,8.1144,0,0,0-8.1145,8.1145v164.42H783.1145A8.1144,8.1144,0,0,0,775,588.7633V675h16.229V596.8778h242.542V675H1050V588.7633A8.1144,8.1144,0,0,0,1041.8855,580.6488ZM947.5344,424.3435V580.6488H877.4656V424.3435Z" style="fill: #00b694"/>
  <rect x="25" y="25" width="525" height="700" rx="4" ry="4" style="fill: none;stroke: #00b694;stroke-miterlimit: 10;stroke-width: 2px"/>
  <rect x="650" y="25" width="525" height="700" rx="4" ry="4" style="fill: none;stroke: #7b0a52;stroke-miterlimit: 10;stroke-width: 2px"/>
  <g>
    <path d="M219.7959,72.7363h7.4883V80.8h-1.8721V78.7832h-.2881a3.4565,3.4565,0,0,1-1.44,1.7051,4.42,4.42,0,0,1-2.4.6474,5.391,5.391,0,0,1-4.26-1.7519,7.4982,7.4982,0,0,1-1.5478-5.1123V70.5273a7.4879,7.4879,0,0,1,1.56-5.0634,5.4418,5.4418,0,0,1,4.3438-1.8,6.48,6.48,0,0,1,2.5439.4677,5.1419,5.1419,0,0,1,1.8482,1.2959A5.6121,5.6121,0,0,1,226.9,67.3711a7.2985,7.2985,0,0,1,.3843,2.3887v.2881h-2.0161V69.76a5.5383,5.5383,0,0,0-.2281-1.584,3.9655,3.9655,0,0,0-.6958-1.3555,3.3269,3.3269,0,0,0-1.2-.9365,4.0886,4.0886,0,0,0-1.7641-.3486,3.3031,3.3031,0,0,0-2.916,1.416,6.457,6.457,0,0,0-.9717,3.7207v3.456a6.3771,6.3771,0,0,0,.9717,3.8037,3.4253,3.4253,0,0,0,2.9643,1.3321,3.57,3.57,0,0,0,2.82-1.1524,4.6862,4.6862,0,0,0,1.02-3.2148v-.2891h-5.4722Z" style="fill: #00b694"/>
    <path d="M230.8359,79.0723h4.32V65.7285H230.98V64h6.0478V79.0723h4.32V80.8H230.8359Z" style="fill: #00b694"/>
    <path d="M254.1641,78.64h-.2881a4.88,4.88,0,0,1-1.5117,1.8243,3.973,3.973,0,0,1-2.3765.6718,4.95,4.95,0,0,1-1.8115-.3232,3.7191,3.7191,0,0,1-1.416-.9727,4.4828,4.4828,0,0,1-.9122-1.6074A6.98,6.98,0,0,1,245.5239,76V68.8965h1.8721V75.76a4.05,4.05,0,0,0,.7681,2.7363,2.986,2.986,0,0,0,2.352.8633,3.2945,3.2945,0,0,0,2.6758-1.1641,4.6911,4.6911,0,0,0,.9722-3.1074V68.8965h1.872v14.832a1.8463,1.8463,0,0,1-.5161,1.3438,1.7825,1.7825,0,0,1-1.332.5273h-6.792V83.8711h6.12q.6482,0,.648-.7188Z" style="fill: #00b694"/>
    <path d="M261.6519,85.6H259.78V68.8965h1.8721v1.8711h.288a4.1267,4.1267,0,0,1,1.7281-1.6436,5.1985,5.1985,0,0,1,2.4-.5644,5.391,5.391,0,0,1,2.0883.4082,5.2284,5.2284,0,0,1,1.74,1.1767,5.5744,5.5744,0,0,1,1.2,1.8955,6.9715,6.9715,0,0,1,.4438,2.5674v.4805a7.21,7.21,0,0,1-.4321,2.5918,5.4317,5.4317,0,0,1-1.188,1.8965,5.0381,5.0381,0,0,1-1.7637,1.164,5.7967,5.7967,0,0,1-2.1362.3955,5.4656,5.4656,0,0,1-1.1758-.1318,4.7308,4.7308,0,0,1-1.14-.4082,4.9372,4.9372,0,0,1-.9961-.6719,3.5563,3.5563,0,0,1-.7681-.9482h-.288Zm3.9843-6.24a4.0761,4.0761,0,0,0,1.584-.3,3.7723,3.7723,0,0,0,1.26-.8516,3.8444,3.8444,0,0,0,.84-1.3447,4.9713,4.9713,0,0,0,.3-1.7754v-.4805a4.8172,4.8172,0,0,0-.3-1.74,4.0079,4.0079,0,0,0-.84-1.3438,3.8083,3.8083,0,0,0-1.272-.875,3.953,3.953,0,0,0-1.5718-.3125,3.7431,3.7431,0,0,0-1.56.3243,3.9082,3.9082,0,0,0-1.26.8994,4.2376,4.2376,0,0,0-.852,1.38,4.8438,4.8438,0,0,0-.312,1.7636v.2891a4.8969,4.8969,0,0,0,.312,1.7871,4.2328,4.2328,0,0,0,.852,1.3809,3.7636,3.7636,0,0,0,1.26.8877A3.8789,3.8789,0,0,0,265.6362,79.3594Z" style="fill: #00b694"/>
    <path d="M276.772,80.8H274.9V64h1.8721v7.0557h.2881a4.4738,4.4738,0,0,1,1.5478-1.8233,4.2542,4.2542,0,0,1,2.436-.6728A4.1447,4.1447,0,0,1,284.2,69.8438a5.4274,5.4274,0,0,1,1.2119,3.8515V80.8H283.54V74.08a4.0955,4.0955,0,0,0-.84-2.8086,2.9138,2.9138,0,0,0-2.28-.9356A3.3,3.3,0,0,0,277.7441,71.5a4.6929,4.6929,0,0,0-.9721,3.1074Z" style="fill: #00b694"/>
    <path d="M291.2441,73.6953h7.2v1.7285h-7.2Z" style="fill: #00b694"/>
    <path d="M306.2441,73.8877V80.8H304.228V64h6a6.25,6.25,0,0,1,2.2559.3711,4.6708,4.6708,0,0,1,1.5962.9961,4.1173,4.1173,0,0,1,.96,1.4531,4.7279,4.7279,0,0,1,.3238,1.7393v.72a4.8168,4.8168,0,0,1-.3238,1.7519,4.1192,4.1192,0,0,1-.9721,1.4766,4.6716,4.6716,0,0,1-1.6079,1.0078,6.1554,6.1554,0,0,1-2.232.3721Zm0-1.8721h3.7437q3.36,0,3.36-2.88v-.4326a2.6863,2.6863,0,0,0-.8281-2.0508,3.579,3.579,0,0,0-2.5322-.7812h-3.7437Z" style="fill: #00b694"/>
    <path d="M327.604,78.7832h-.2881A3.8994,3.8994,0,0,1,325.72,80.56a4.31,4.31,0,0,1-2.1484.5761,5.9248,5.9248,0,0,1-2.1836-.3955,4.9605,4.9605,0,0,1-1.7642-1.1757,5.5666,5.5666,0,0,1-1.188-1.9083,7.287,7.287,0,0,1-.4321-2.6162v-.3838a7.2091,7.2091,0,0,1,.4321-2.5917,5.5571,5.5571,0,0,1,1.188-1.9083,5.099,5.099,0,0,1,1.7642-1.1884,5.6258,5.6258,0,0,1,2.1357-.4082,4.5892,4.5892,0,0,1,2.22.54,3.7933,3.7933,0,0,1,1.5718,1.668h.2881V68.8965h1.8721v9.4551q0,.7206.6479.7207h.6V80.8h-1.272a1.7781,1.7781,0,0,1-1.332-.5283,1.84,1.84,0,0,1-.5161-1.3438Zm-3.84.5762a3.7973,3.7973,0,0,0,1.5478-.3115,3.4314,3.4314,0,0,0,1.2119-.8877,4.2416,4.2416,0,0,0,.792-1.3809,5.2654,5.2654,0,0,0,.2881-1.7871v-.2891a5.2076,5.2076,0,0,0-.2881-1.7636,4.1336,4.1336,0,0,0-.8037-1.38,3.6867,3.6867,0,0,0-1.2241-.8994,3.6086,3.6086,0,0,0-1.5239-.3243,3.697,3.697,0,0,0-1.5362.3125,3.6425,3.6425,0,0,0-1.2119.875,3.9984,3.9984,0,0,0-.8042,1.3682,5.201,5.201,0,0,0-.2881,1.7646V75.04a4.4668,4.4668,0,0,0,1.0684,3.18A3.6208,3.6208,0,0,0,323.7642,79.3594Z" style="fill: #00b694"/>
    <path d="M333.2441,68.8965h3.7437V64H338.86v4.8965h4.6079V70.624H338.86v7.7276q0,.7206.6479.7207h3.3843V80.8h-4.0562a1.7789,1.7789,0,0,1-1.332-.5283,1.84,1.84,0,0,1-.5161-1.3438V70.624h-3.7437Z" style="fill: #00b694"/>
    <path d="M350.2119,80.8H348.34V64h1.8721v7.0557H350.5a4.4748,4.4748,0,0,1,1.5479-1.8233,4.2537,4.2537,0,0,1,2.436-.6728,4.1445,4.1445,0,0,1,3.1562,1.2842,5.427,5.427,0,0,1,1.212,3.8515V80.8H356.98V74.08a4.0955,4.0955,0,0,0-.84-2.8086,2.9135,2.9135,0,0,0-2.28-.9356A3.3,3.3,0,0,0,351.1841,71.5a4.6924,4.6924,0,0,0-.9722,3.1074Z" style="fill: #00b694"/>
  </g>
  <g>
    <path d="M874.1719,72.7363H881.66V80.8h-1.8721V78.7832H879.5a3.4536,3.4536,0,0,1-1.4395,1.7051,4.4226,4.4226,0,0,1-2.4.6474,5.3884,5.3884,0,0,1-4.26-1.7519,7.4958,7.4958,0,0,1-1.5488-5.1123V70.5273a7.4854,7.4854,0,0,1,1.5605-5.0634,5.4423,5.4423,0,0,1,4.3438-1.8,6.4778,6.4778,0,0,1,2.5439.4677,5.1478,5.1478,0,0,1,1.8486,1.2959,5.6164,5.6164,0,0,1,1.127,1.9434A7.3012,7.3012,0,0,1,881.66,69.76v.2881h-2.0157V69.76a5.5212,5.5212,0,0,0-.2285-1.584,3.9734,3.9734,0,0,0-.6953-1.3555,3.33,3.33,0,0,0-1.2012-.9365,4.0882,4.0882,0,0,0-1.7636-.3486,3.3039,3.3039,0,0,0-2.9161,1.416,6.4539,6.4539,0,0,0-.9716,3.7207v3.456a6.3743,6.3743,0,0,0,.9716,3.8037,3.4265,3.4265,0,0,0,2.9649,1.3321,3.57,3.57,0,0,0,2.8193-1.1524,4.6864,4.6864,0,0,0,1.02-3.2148v-.2891h-5.4726Z" style="fill: #7b0a52"/>
    <path d="M885.2119,79.0723h4.32V65.7285h-4.1767V64h6.0488V79.0723h4.32V80.8H885.2119Z" style="fill: #7b0a52"/>
    <path d="M908.54,78.64h-.288a4.8836,4.8836,0,0,1-1.5118,1.8243,3.973,3.973,0,0,1-2.3769.6718,4.9422,4.9422,0,0,1-1.8106-.3232,3.7085,3.7085,0,0,1-1.416-.9727,4.4678,4.4678,0,0,1-.9121-1.6074A6.9658,6.9658,0,0,1,899.9,76V68.8965h1.8711V75.76a4.047,4.047,0,0,0,.7685,2.7363,2.9866,2.9866,0,0,0,2.3526.8633,3.2966,3.2966,0,0,0,2.6758-1.1641,4.6936,4.6936,0,0,0,.9716-3.1074V68.8965h1.8721v14.832a1.8464,1.8464,0,0,1-.5156,1.3438,1.7848,1.7848,0,0,1-1.332.5273h-6.793V83.8711h6.1211q.6474,0,.6474-.7188Z" style="fill: #7b0a52"/>
    <path d="M916.0273,85.6h-1.8711V68.8965h1.8711v1.8711h.2891a4.1281,4.1281,0,0,1,1.7275-1.6436,5.1971,5.1971,0,0,1,2.3995-.5644,5.3916,5.3916,0,0,1,2.0888.4082,5.2314,5.2314,0,0,1,1.7393,1.1767,5.584,5.584,0,0,1,1.2012,1.8955,6.9923,6.9923,0,0,1,.4433,2.5674v.4805a7.2318,7.2318,0,0,1-.4316,2.5918,5.4472,5.4472,0,0,1-1.1885,1.8965,5.0381,5.0381,0,0,1-1.7637,1.164,5.7963,5.7963,0,0,1-2.1357.3955,5.451,5.451,0,0,1-1.1758-.1318,4.7269,4.7269,0,0,1-1.1406-.4082,4.9512,4.9512,0,0,1-.9961-.6719,3.5258,3.5258,0,0,1-.7676-.9482h-.2891Zm3.9844-6.24a4.0726,4.0726,0,0,0,1.584-.3,3.7623,3.7623,0,0,0,1.26-.8516,3.8228,3.8228,0,0,0,.84-1.3447,4.9493,4.9493,0,0,0,.3008-1.7754v-.4805a4.7958,4.7958,0,0,0-.3008-1.74,3.9844,3.9844,0,0,0-.84-1.3438,3.7962,3.7962,0,0,0-1.2715-.875,3.9519,3.9519,0,0,0-1.5723-.3125,3.74,3.74,0,0,0-1.56.3243,3.9217,3.9217,0,0,0-1.2607.8994,4.2452,4.2452,0,0,0-.8516,1.38,4.8439,4.8439,0,0,0-.3125,1.7636v.2891a4.8969,4.8969,0,0,0,.3125,1.7871,4.24,4.24,0,0,0,.8516,1.3809,3.7762,3.7762,0,0,0,1.2607.8877A3.8752,3.8752,0,0,0,920.0117,79.3594Z" style="fill: #7b0a52"/>
    <path d="M931.1484,80.8h-1.873V64h1.873v7.0557h.2871a4.4808,4.4808,0,0,1,1.5489-1.8233A4.2523,4.2523,0,0,1,935.42,68.56a4.1455,4.1455,0,0,1,3.1563,1.2842,5.4274,5.4274,0,0,1,1.2119,3.8515V80.8H937.916V74.08a4.096,4.096,0,0,0-.84-2.8086,2.9138,2.9138,0,0,0-2.28-.9356A3.3,3.3,0,0,0,932.12,71.5a4.6954,4.6954,0,0,0-.9717,3.1074Z" style="fill: #7b0a52"/>
    <path d="M945.332,75.4238a4.2236,4.2236,0,0,0,1.1035,2.8555,3.7924,3.7924,0,0,0,2.8809,1.08,4.9956,4.9956,0,0,0,1.4629-.1914,3.4052,3.4052,0,0,0,1.0684-.5284,2.871,2.871,0,0,0,.7207-.78,4.4159,4.4159,0,0,0,.4433-.9473l1.7764.48a5.25,5.25,0,0,1-1.86,2.7,5.8546,5.8546,0,0,1-3.66,1.0439,6.02,6.02,0,0,1-2.34-.4443,5.232,5.232,0,0,1-1.8359-1.26,5.8309,5.8309,0,0,1-1.1992-1.9433,6.9038,6.9038,0,0,1-.4326-2.4961V74.416a6.0452,6.0452,0,0,1,.4443-2.3281,5.4773,5.4773,0,0,1,1.2363-1.8594A5.7864,5.7864,0,0,1,947,69.0039a5.9767,5.9767,0,0,1,2.3164-.4443,5.5576,5.5576,0,0,1,2.5313.54,5.6474,5.6474,0,0,1,1.7519,1.332,5.2223,5.2223,0,0,1,1.0078,1.7286,5.2844,5.2844,0,0,1,.3242,1.7275v1.5361Zm3.9844-5.0879a4.2393,4.2393,0,0,0-1.4766.252,3.7367,3.7367,0,0,0-2.04,1.7754,3.9312,3.9312,0,0,0-.42,1.332h7.6806a3.4637,3.4637,0,0,0-.373-1.3916,3.3838,3.3838,0,0,0-.84-1.0557,3.8864,3.8864,0,0,0-1.1758-.6718A3.934,3.934,0,0,0,949.3164,70.3359Z" style="fill: #7b0a52"/>
  </g>
  <path d="M1146,127a2.0023,2.0023,0,0,1,2,2v42a2.0023,2.0023,0,0,1-2,2H679a2.0023,2.0023,0,0,1-2-2V129a2.0023,2.0023,0,0,1,2-2h467m0-2H679a4,4,0,0,0-4,4v42a4,4,0,0,0,4,4h467a4,4,0,0,0,4-4V129a4,4,0,0,0-4-4Z" style="fill: #7b0a52"/>
  <g>
    <path d="M693.29,157.1992h-2.0283V144.3037H693.29v2.1846h.3116a4.2289,4.2289,0,0,1,4.16-2.5488,4.6978,4.6978,0,0,1,3.5625,1.3906,5.8449,5.8449,0,0,1,1.3262,4.1738v7.6953h-2.0283V149.92a4.4325,4.4325,0,0,0-.91-3.042,3.1491,3.1491,0,0,0-2.47-1.0146,3.5748,3.5748,0,0,0-2.8994,1.2617,5.0833,5.0833,0,0,0-1.0528,3.3672Z" style="fill: #7b0a52"/>
    <path d="M716.5342,155.0156h-.3115a4.23,4.23,0,0,1-1.73,1.9239,4.6663,4.6663,0,0,1-2.3272.624,6.4043,6.4043,0,0,1-2.3652-.4287,5.3822,5.3822,0,0,1-1.9121-1.2735,6.0385,6.0385,0,0,1-1.2871-2.0674,7.9083,7.9083,0,0,1-.4668-2.8349v-.4151a7.822,7.822,0,0,1,.4668-2.8076,6.05,6.05,0,0,1,1.2871-2.0674,5.5246,5.5246,0,0,1,1.9121-1.2871,6.116,6.116,0,0,1,2.3135-.4423,4.96,4.96,0,0,1,2.4052.5859,4.1038,4.1038,0,0,1,1.7032,1.8066h.3115v-2.0283h2.0283v10.2442q0,.7807.7012.78h.65v1.8711h-1.378a1.9246,1.9246,0,0,1-1.4423-.5713,1.9957,1.9957,0,0,1-.56-1.456Zm-4.16.624a4.11,4.11,0,0,0,1.6768-.3378,3.7147,3.7147,0,0,0,1.3135-.962,4.6067,4.6067,0,0,0,.8584-1.4951,5.734,5.734,0,0,0,.3115-1.9365v-.3125a5.6566,5.6566,0,0,0-.3115-1.9111,4.4955,4.4955,0,0,0-.8711-1.4951,4.0048,4.0048,0,0,0-1.3262-.9747,3.92,3.92,0,0,0-1.6514-.3515,4.0352,4.0352,0,0,0-1.664.3379,3.9872,3.9872,0,0,0-1.3135.9492,4.3669,4.3669,0,0,0-.8711,1.4824,5.6574,5.6574,0,0,0-.3115,1.9111v.4151a4.8393,4.8393,0,0,0,1.1572,3.4453A3.9234,3.9234,0,0,0,712.374,155.64Z" style="fill: #7b0a52"/>
    <path d="M735.4883,157.1992h-2.0274v-9.2558a2.5248,2.5248,0,0,0-.416-1.4942,1.5164,1.5164,0,0,0-1.3261-.5859,1.7293,1.7293,0,0,0-1.3917.6367,3.0221,3.0221,0,0,0-.5322,1.9639v8.7353h-2.0293V147.84a2.1318,2.1318,0,0,0-.4668-1.4169,1.5489,1.5489,0,0,0-1.248-.56,1.6993,1.6993,0,0,0-1.4434.6758,2.8758,2.8758,0,0,0-.5078,1.7685v8.8916h-2.0273V144.3037H724.1v1.4033h.3125a2.6319,2.6319,0,0,1,.9883-1.3379,2.7113,2.7113,0,0,1,1.5332-.43,2.383,2.383,0,0,1,1.5478.4941,2.5387,2.5387,0,0,1,.8448,1.2734h.3125a2.94,2.94,0,0,1,2.8076-1.7675,2.8053,2.8053,0,0,1,2.249.9238,3.56,3.56,0,0,1,.793,2.4043Z" style="fill: #7b0a52"/>
    <path d="M740.4805,151.375a4.5755,4.5755,0,0,0,1.1953,3.0947,4.111,4.111,0,0,0,3.1211,1.17,5.42,5.42,0,0,0,1.5859-.208,3.69,3.69,0,0,0,1.1563-.5722,3.1324,3.1324,0,0,0,.78-.8448,4.8759,4.8759,0,0,0,.4815-1.0263l1.9238.5195a5.6968,5.6968,0,0,1-2.0156,2.9248,6.3376,6.3376,0,0,1-3.9649,1.1309,6.5284,6.5284,0,0,1-2.5351-.4815,5.6973,5.6973,0,0,1-1.9883-1.3642,6.3425,6.3425,0,0,1-1.3008-2.1065,7.5121,7.5121,0,0,1-.4678-2.7031v-.625a6.5544,6.5544,0,0,1,.4815-2.5215,5.9965,5.9965,0,0,1,1.3389-2.0156,6.2794,6.2794,0,0,1,2.0146-1.3252,6.46,6.46,0,0,1,2.51-.4814,6.0026,6.0026,0,0,1,2.7422.5859,6.0872,6.0872,0,0,1,1.8984,1.4424,5.9766,5.9766,0,0,1,1.4434,3.7441v1.6631Zm4.3164-5.5117a4.6017,4.6017,0,0,0-1.6.2734,4.0467,4.0467,0,0,0-2.21,1.9238,4.2844,4.2844,0,0,0-.4551,1.4434h8.32a3.7424,3.7424,0,0,0-.4033-1.5078,3.6946,3.6946,0,0,0-.91-1.1445,4.2108,4.2108,0,0,0-1.2735-.7286A4.3039,4.3039,0,0,0,744.7969,145.8633Z" style="fill: #7b0a52"/>
    <path d="M758.7852,145.76a1.8188,1.8188,0,1,1,.5322,1.2871A1.7536,1.7536,0,0,1,758.7852,145.76Zm0,9.9843a1.8172,1.8172,0,1,1,.5322,1.2871A1.7524,1.7524,0,0,1,758.7852,155.7441Z" style="fill: #7b0a52"/>
    <path d="M796.3281,152.6758h-7.7988l-1.3262,4.5234h-2.34L790.375,139h4.1074l5.5117,18.1992h-2.34Zm-4.0556-12.74-3.1455,10.7129h6.6035l-3.1465-10.7129Z" style="fill: #7b0a52"/>
  </g>
  <path d="M1146,202a2.0023,2.0023,0,0,1,2,2v42a2.0023,2.0023,0,0,1-2,2H679a2.0023,2.0023,0,0,1-2-2V204a2.0023,2.0023,0,0,1,2-2h467m0-2H679a4,4,0,0,0-4,4v42a4,4,0,0,0,4,4h467a4,4,0,0,0,4-4V204a4,4,0,0,0-4-4Z" style="fill: #7b0a52"/>
  <g>
    <path d="M699.584,218.8965h1.8721V230.8H699.584v-2.16h-.2881a4.875,4.875,0,0,1-1.5117,1.8243,3.9721,3.9721,0,0,1-2.376.6718,4.96,4.96,0,0,1-1.8125-.3232,3.7307,3.7307,0,0,1-1.416-.9727,4.496,4.496,0,0,1-.9121-1.6074A6.9937,6.9937,0,0,1,690.9434,226v-7.1035h1.873V225.76a4.0525,4.0525,0,0,0,.7676,2.7363,2.9855,2.9855,0,0,0,2.3515.8633,3.2923,3.2923,0,0,0,2.6758-1.1641,4.688,4.688,0,0,0,.9727-3.1074Z" style="fill: #7b0a52"/>
    <path d="M707.6484,230.8h-1.873V218.8965h1.873v2.0156h.2871a3.9045,3.9045,0,0,1,3.84-2.3525,4.3328,4.3328,0,0,1,3.2891,1.2842,5.3938,5.3938,0,0,1,1.2236,3.8515V230.8H714.416v-6.72a4.096,4.096,0,0,0-.84-2.8086,2.9138,2.9138,0,0,0-2.28-.9356A3.3,3.3,0,0,0,708.62,221.5a4.6954,4.6954,0,0,0-.9717,3.1074Z" style="fill: #7b0a52"/>
    <path d="M720.752,229.0723h4.1757V220.624h-3.7441v-1.7275H726.8v10.1758h3.8877V230.8H720.752Zm3.4082-13.7285a1.68,1.68,0,1,1,.4921,1.1874A1.618,1.618,0,0,1,724.16,215.3438Z" style="fill: #7b0a52"/>
    <path d="M746.2881,226.5762a6.1494,6.1494,0,0,1-.66,1.8242A5.1608,5.1608,0,0,1,742.76,230.8a6.4443,6.4443,0,0,1-2.1358.3359,6.8432,6.8432,0,0,1-2.3642-.4072,5.7153,5.7153,0,0,1-1.9551-1.1885,5.6211,5.6211,0,0,1-1.332-1.9082,6.4259,6.4259,0,0,1-.4922-2.5918v-.288a6.5326,6.5326,0,0,1,.4922-2.5918,5.6968,5.6968,0,0,1,1.332-1.9444,5.91,5.91,0,0,1,1.9551-1.2236,6.47,6.47,0,0,1,2.3642-.4326,6.2622,6.2622,0,0,1,2.0879.3369,5.3756,5.3756,0,0,1,1.6924.9473,5.14,5.14,0,0,1,1.1992,1.4521,5.6781,5.6781,0,0,1,.6367,1.8232l-1.872.4327a3.8979,3.8979,0,0,0-.3487-1.212,3.3813,3.3813,0,0,0-.7441-1.0322,3.4743,3.4743,0,0,0-1.14-.708,4.252,4.252,0,0,0-1.56-.2637,4.0545,4.0545,0,0,0-1.62.3243,4.1039,4.1039,0,0,0-1.3321.9121,4.1671,4.1671,0,0,0-.8994,1.4033,4.7529,4.7529,0,0,0-.3242,1.7764v.288a4.7912,4.7912,0,0,0,.3242,1.8116,3.8136,3.8136,0,0,0,.8994,1.3564,4.04,4.04,0,0,0,1.3438.8516,4.5077,4.5077,0,0,0,1.6562.3,3.9986,3.9986,0,0,0,1.5479-.2754,3.6622,3.6622,0,0,0,1.1279-.7207,3.4436,3.4436,0,0,0,.7441-1.02,4.2828,4.2828,0,0,0,.3721-1.1993Z" style="fill: #7b0a52"/>
    <path d="M761.0723,224.9922a6.572,6.572,0,0,1-.4922,2.6269,5.782,5.782,0,0,1-1.3086,1.9209,5.5152,5.5152,0,0,1-1.9082,1.1885,6.55,6.55,0,0,1-4.5469,0A5.5483,5.5483,0,0,1,750.92,229.54a5.7983,5.7983,0,0,1-1.3086-1.9209,6.5722,6.5722,0,0,1-.4912-2.6269v-.2891a6.5159,6.5159,0,0,1,.4912-2.6035,5.8364,5.8364,0,0,1,1.32-1.9316,5.6009,5.6009,0,0,1,1.9082-1.2,6.4377,6.4377,0,0,1,4.5118,0,5.5818,5.5818,0,0,1,1.9082,1.2,5.82,5.82,0,0,1,1.32,1.9316,6.5158,6.5158,0,0,1,.4922,2.6035Zm-5.9766,4.3672a4.1635,4.1635,0,0,0,1.5957-.3,3.7129,3.7129,0,0,0,1.2852-.876,4.132,4.132,0,0,0,.8632-1.38,4.9719,4.9719,0,0,0,.3125-1.8115v-.2891a4.8418,4.8418,0,0,0-.3125-1.7636,4.1411,4.1411,0,0,0-.8632-1.38,3.9862,3.9862,0,0,0-1.2969-.8994,4.0306,4.0306,0,0,0-3.168,0,3.9715,3.9715,0,0,0-1.2959.8994,4.129,4.129,0,0,0-.8642,1.38,4.8627,4.8627,0,0,0-.3116,1.7636v.2891a4.9932,4.9932,0,0,0,.3116,1.8115,4.12,4.12,0,0,0,.8642,1.38,3.7,3.7,0,0,0,1.2842.876A4.1635,4.1635,0,0,0,755.0957,229.3594Z" style="fill: #7b0a52"/>
    <path d="M773.7441,228.9756h-.288a3.489,3.489,0,0,1-.7315.96,4.34,4.34,0,0,1-.9609.6719,4.63,4.63,0,0,1-1.0918.3965,4.9451,4.9451,0,0,1-1.1035.1318,6.0238,6.0238,0,0,1-2.2325-.4072,5.2529,5.2529,0,0,1-3.0361-3.084,7.1411,7.1411,0,0,1-.4443-2.6045v-.3838a6.88,6.88,0,0,1,.457-2.58,5.6958,5.6958,0,0,1,1.2236-1.92,5.1737,5.1737,0,0,1,1.8-1.1884,5.8739,5.8739,0,0,1,2.1836-.4082,5.0218,5.0218,0,0,1,2.293.54,3.6936,3.6936,0,0,1,1.6436,1.668h.288V214h1.8711v16.8h-1.8711Zm-3.9843.3838a3.883,3.883,0,0,0,1.56-.3115,3.7716,3.7716,0,0,0,1.26-.8877,4.2385,4.2385,0,0,0,.8515-1.3809,4.8969,4.8969,0,0,0,.3125-1.7871v-.2891a4.8439,4.8439,0,0,0-.3125-1.7636,4.2433,4.2433,0,0,0-.8515-1.38,3.8816,3.8816,0,0,0-1.2715-.8994,3.7747,3.7747,0,0,0-1.5488-.3243,3.9519,3.9519,0,0,0-1.5723.3125,3.7165,3.7165,0,0,0-1.2715.8868,4.1014,4.1014,0,0,0-.84,1.3691,4.8787,4.8787,0,0,0-.3008,1.7519v.3838a5.025,5.025,0,0,0,.3008,1.8,3.9546,3.9546,0,0,0,.84,1.3555,3.6708,3.6708,0,0,0,1.26.8643A4.0758,4.0758,0,0,0,769.76,229.3594Z" style="fill: #7b0a52"/>
    <path d="M780.584,225.4238a4.2232,4.2232,0,0,0,1.1035,2.8555,3.7923,3.7923,0,0,0,2.8809,1.08,4.9954,4.9954,0,0,0,1.4628-.1914A3.4041,3.4041,0,0,0,787.1,228.64a2.8694,2.8694,0,0,0,.7207-.78,4.421,4.421,0,0,0,.4434-.9473l1.7763.48a5.25,5.25,0,0,1-1.86,2.7,5.8549,5.8549,0,0,1-3.66,1.0439,6.02,6.02,0,0,1-2.34-.4443,5.232,5.232,0,0,1-1.8359-1.26,5.83,5.83,0,0,1-1.1993-1.9433,6.906,6.906,0,0,1-.4326-2.4961v-.5762a6.0471,6.0471,0,0,1,.4443-2.3281,5.479,5.479,0,0,1,1.2364-1.8594,5.7842,5.7842,0,0,1,1.8594-1.2246,5.9763,5.9763,0,0,1,2.3164-.4443,5.5569,5.5569,0,0,1,2.5312.54,5.6479,5.6479,0,0,1,1.752,1.332,5.224,5.224,0,0,1,1.0078,1.7286,5.2844,5.2844,0,0,1,.3242,1.7275v1.5361Zm3.9844-5.0879a4.2388,4.2388,0,0,0-1.4766.252,3.7367,3.7367,0,0,0-2.04,1.7754,3.9292,3.9292,0,0,0-.42,1.332h7.6807a3.4653,3.4653,0,0,0-.373-1.3916,3.384,3.384,0,0,0-.84-1.0557,3.884,3.884,0,0,0-1.1758-.6718A3.9334,3.9334,0,0,0,784.5684,220.3359Z" style="fill: #7b0a52"/>
    <path d="M797.4805,220.24a1.6788,1.6788,0,1,1,.4912,1.1875A1.6174,1.6174,0,0,1,797.4805,220.24Zm0,9.2149a1.6771,1.6771,0,1,1,.4912,1.1894A1.6184,1.6184,0,0,1,797.4805,229.4551Z" style="fill: #7b0a52"/>
    <path d="M832.0645,218.8965a3.3653,3.3653,0,0,0-.961-2.5088,3.6262,3.6262,0,0,0-2.664-.9482,3.8111,3.8111,0,0,0-1.5.289,3.3,3.3,0,0,0-1.1758.8272,3.8853,3.8853,0,0,0-.7676,1.2841,4.6684,4.6684,0,0,0-.2764,1.6319v2.4961h.2881a4.14,4.14,0,0,1,1.6445-1.6553,4.7835,4.7835,0,0,1,2.3877-.6006,5.9876,5.9876,0,0,1,2.1358.3721,4.62,4.62,0,0,1,1.6914,1.0918,5.0518,5.0518,0,0,1,1.1045,1.74,6.3455,6.3455,0,0,1,.3955,2.3164v.2871a5.7144,5.7144,0,0,1-.4434,2.28,5.3436,5.3436,0,0,1-1.2246,1.7764,5.4729,5.4729,0,0,1-1.8476,1.1523,6.79,6.79,0,0,1-4.6319,0,5.57,5.57,0,0,1-1.8476-1.1406,5.2244,5.2244,0,0,1-1.2237-1.752,5.5471,5.5471,0,0,1-.4443-2.2441v-6.12a6.0951,6.0951,0,0,1,.4561-2.3994,5.3962,5.3962,0,0,1,1.248-1.836,5.5473,5.5473,0,0,1,1.8359-1.164,6.0957,6.0957,0,0,1,2.2442-.4082,6.73,6.73,0,0,1,2.2314.3593,5.0294,5.0294,0,0,1,1.7764,1.045,4.8057,4.8057,0,0,1,1.1641,1.6552,5.4337,5.4337,0,0,1,.42,2.1729Zm-3.5284,10.4629a4.3016,4.3016,0,0,0,1.5713-.2754,3.4676,3.4676,0,0,0,1.2129-.78,3.3482,3.3482,0,0,0,.7676-1.2,4.2963,4.2963,0,0,0,.2637-1.5351v-.2891a3.9877,3.9877,0,0,0-.2871-1.5352,3.6515,3.6515,0,0,0-.793-1.2,3.4786,3.4786,0,0,0-1.211-.78,4.1715,4.1715,0,0,0-1.5244-.2754,3.9335,3.9335,0,0,0-1.5127.2871,3.7905,3.7905,0,0,0-1.2109.793,3.6163,3.6163,0,0,0-1.0928,2.6152v.456a4.04,4.04,0,0,0,.2647,1.4756,3.3681,3.3681,0,0,0,.7676,1.1885,3.4725,3.4725,0,0,0,1.2119.78A4.3027,4.3027,0,0,0,828.5361,229.3594Z" style="fill: #7b0a52"/>
    <path d="M837.752,222.88V214h10.5117v1.8711H839.72v6h.2881a4.5267,4.5267,0,0,1,.624-.9238,4.2845,4.2845,0,0,1,.8994-.7793,4.7077,4.7077,0,0,1,1.1641-.54,4.7942,4.7942,0,0,1,1.44-.2041,5.7531,5.7531,0,0,1,2.1241.3838,4.8521,4.8521,0,0,1,1.6679,1.08,4.9577,4.9577,0,0,1,1.0918,1.6807,5.8057,5.8057,0,0,1,.3965,2.1836v.4316a6.6452,6.6452,0,0,1-.3848,2.2676,5.6862,5.6862,0,0,1-1.1269,1.8965,5.2741,5.2741,0,0,1-1.8486,1.3085,6.3376,6.3376,0,0,1-2.544.48,7.1881,7.1881,0,0,1-2.5918-.4326,5.3307,5.3307,0,0,1-1.8965-1.1992,5.0845,5.0845,0,0,1-1.164-1.8125,6.3435,6.3435,0,0,1-.3955-2.2676v-.6718h2.0166v.5273a3.8,3.8,0,0,0,1.1152,2.9883,4.2164,4.2164,0,0,0,2.916.9961,3.8933,3.8933,0,0,0,1.6924-.3477,3.5846,3.5846,0,0,0,1.2236-.9355,3.8937,3.8937,0,0,0,.7325-1.3692,5.4633,5.4633,0,0,0,.24-1.6191v-.1445a3.8119,3.8119,0,0,0-.252-1.3926,3.5106,3.5106,0,0,0-.6972-1.127,3.1566,3.1566,0,0,0-1.0791-.7558,3.4378,3.4378,0,0,0-1.38-.2764,2.8374,2.8374,0,0,0-.9238.1436,2.69,2.69,0,0,0-.7325.373,2.2087,2.2087,0,0,0-.5156.5156,1.76,1.76,0,0,0-.2764.5518Z" style="fill: #7b0a52"/>
  </g>
  <path d="M1146,277a2.0023,2.0023,0,0,1,2,2v42a2.0023,2.0023,0,0,1-2,2H679a2.0023,2.0023,0,0,1-2-2V279a2.0023,2.0023,0,0,1,2-2h467m0-2H679a4,4,0,0,0-4,4v42a4,4,0,0,0,4,4h467a4,4,0,0,0,4-4V279a4,4,0,0,0-4-4Z" style="fill: #7b0a52"/>
  <g>
    <path d="M699.7285,303.7832h-.289a3.8951,3.8951,0,0,1-1.5957,1.7764,4.3078,4.3078,0,0,1-2.1485.5761,5.9267,5.9267,0,0,1-2.1836-.3955,4.9639,4.9639,0,0,1-1.7637-1.1757,5.552,5.552,0,0,1-1.1875-1.9083,7.2671,7.2671,0,0,1-.4326-2.6162v-.3838a7.1893,7.1893,0,0,1,.4326-2.5917,5.5426,5.5426,0,0,1,1.1875-1.9083,5.1026,5.1026,0,0,1,1.7637-1.1884,5.629,5.629,0,0,1,2.1367-.4082,4.5891,4.5891,0,0,1,2.22.54,3.7906,3.7906,0,0,1,1.5713,1.668h.289v-1.8711H701.6v9.4551q0,.7206.6484.7207h.6V305.8h-1.2715a1.7774,1.7774,0,0,1-1.3321-.5283,1.8416,1.8416,0,0,1-.5156-1.3438Zm-3.84.5762a3.7935,3.7935,0,0,0,1.5468-.3115,3.4262,3.4262,0,0,0,1.2129-.8877,4.2327,4.2327,0,0,0,.7911-1.3809,5.2554,5.2554,0,0,0,.289-1.7871v-.2891a5.1978,5.1978,0,0,0-.289-1.7636,4.1251,4.1251,0,0,0-.8028-1.38,3.6937,3.6937,0,0,0-1.2246-.8994,3.6093,3.6093,0,0,0-1.5234-.3243,3.7042,3.7042,0,0,0-1.5371.3125,3.6431,3.6431,0,0,0-1.211.875,3.9835,3.9835,0,0,0-.8047,1.3682,5.2133,5.2133,0,0,0-.288,1.7646v.3838a4.469,4.469,0,0,0,1.0683,3.18A3.6221,3.6221,0,0,0,695.8887,304.3594Z" style="fill: #7b0a52"/>
    <path d="M714.9922,303.9756h-.2881a3.4886,3.4886,0,0,1-.7314.96,4.3381,4.3381,0,0,1-.961.6719,4.6267,4.6267,0,0,1-1.0918.3965,4.9444,4.9444,0,0,1-1.1035.1318,6.0233,6.0233,0,0,1-2.2324-.4072,5.2529,5.2529,0,0,1-3.0361-3.084,7.141,7.141,0,0,1-.4444-2.6045v-.3838a6.8819,6.8819,0,0,1,.457-2.58,5.6975,5.6975,0,0,1,1.2237-1.92,5.1728,5.1728,0,0,1,1.8-1.1884,5.8735,5.8735,0,0,1,2.1836-.4082,5.0211,5.0211,0,0,1,2.2929.54,3.6932,3.6932,0,0,1,1.6436,1.668h.2881V289h1.8711v16.8h-1.8711Zm-3.9844.3838a3.8831,3.8831,0,0,0,1.5606-.3115,3.77,3.77,0,0,0,1.26-.8877,4.2387,4.2387,0,0,0,.8516-1.3809,4.8969,4.8969,0,0,0,.3125-1.7871v-.2891a4.8439,4.8439,0,0,0-.3125-1.7636,4.2435,4.2435,0,0,0-.8516-1.38,3.8806,3.8806,0,0,0-1.2715-.8994,3.7741,3.7741,0,0,0-1.5488-.3243,3.9523,3.9523,0,0,0-1.5723.3125,3.7161,3.7161,0,0,0-1.2714.8868,4.1016,4.1016,0,0,0-.84,1.3691,4.8787,4.8787,0,0,0-.3008,1.7519v.3838a5.025,5.025,0,0,0,.3008,1.8,3.9548,3.9548,0,0,0,.84,1.3555,3.67,3.67,0,0,0,1.26.8643A4.0761,4.0761,0,0,0,711.0078,304.3594Z" style="fill: #7b0a52"/>
    <path d="M727.5439,305.8h-3.6962l-4.1524-11.9033h2.209l3.6475,11.039h.288l3.6485-11.039h2.207Z" style="fill: #7b0a52"/>
    <path d="M743.792,303.7832h-.2881a3.8994,3.8994,0,0,1-1.5957,1.7764,4.31,4.31,0,0,1-2.1484.5761,5.9263,5.9263,0,0,1-2.1836-.3955,4.963,4.963,0,0,1-1.7637-1.1757,5.5676,5.5676,0,0,1-1.1885-1.9083,7.2867,7.2867,0,0,1-.4326-2.6162v-.3838a7.2089,7.2089,0,0,1,.4326-2.5917,5.5581,5.5581,0,0,1,1.1885-1.9083,5.1017,5.1017,0,0,1,1.7637-1.1884,5.6236,5.6236,0,0,1,2.1357-.4082,4.5887,4.5887,0,0,1,2.22.54,3.7915,3.7915,0,0,1,1.5723,1.668h.2881v-1.8711h1.8721v9.4551q0,.7206.6484.7207h.6V305.8h-1.2715a1.7772,1.7772,0,0,1-1.332-.5283,1.8383,1.8383,0,0,1-.5166-1.3438Zm-3.84.5762a3.7991,3.7991,0,0,0,1.5479-.3115,3.4314,3.4314,0,0,0,1.2119-.8877,4.2327,4.2327,0,0,0,.792-1.3809,5.2777,5.2777,0,0,0,.2881-1.7871v-.2891a5.22,5.22,0,0,0-.2881-1.7636,4.1269,4.1269,0,0,0-.8037-1.38,3.7,3.7,0,0,0-1.2236-.8994,3.611,3.611,0,0,0-1.5245-.3243,3.6969,3.6969,0,0,0-1.5361.3125,3.6375,3.6375,0,0,0-1.2119.875,3.9816,3.9816,0,0,0-.8037,1.3682,5.1888,5.1888,0,0,0-.2891,1.7646v.3838a4.4691,4.4691,0,0,0,1.0684,3.18A3.6234,3.6234,0,0,0,739.9521,304.3594Z" style="fill: #7b0a52"/>
    <path d="M751.7119,305.8H749.84V293.8965h1.8721v2.0156H752a3.9035,3.9035,0,0,1,3.84-2.3525,4.33,4.33,0,0,1,3.2881,1.2842,5.3934,5.3934,0,0,1,1.2237,3.8515V305.8h-1.8711v-6.72a4.1006,4.1006,0,0,0-.84-2.8086,2.9143,2.9143,0,0,0-2.2812-.9356,3.3009,3.3009,0,0,0-2.6758,1.1641,4.6949,4.6949,0,0,0-.9717,3.1074Z" style="fill: #7b0a52"/>
    <path d="M775.6641,301.5762a6.1522,6.1522,0,0,1-.66,1.8242,5.1526,5.1526,0,0,1-2.8682,2.3994,6.4433,6.4433,0,0,1-2.1357.3359,6.8442,6.8442,0,0,1-2.3643-.4072,5.7477,5.7477,0,0,1-1.956-1.1885,5.635,5.635,0,0,1-1.332-1.9082,6.4259,6.4259,0,0,1-.4922-2.5918v-.288a6.5326,6.5326,0,0,1,.4922-2.5918,5.7108,5.7108,0,0,1,1.332-1.9444,5.9446,5.9446,0,0,1,1.956-1.2236A6.4706,6.4706,0,0,1,770,293.56a6.2665,6.2665,0,0,1,2.0879.3369,5.3717,5.3717,0,0,1,1.6914.9473,5.147,5.147,0,0,1,1.2012,1.4521,5.6748,5.6748,0,0,1,.6347,1.8232l-1.8711.4327a3.92,3.92,0,0,0-.3476-1.212,3.4137,3.4137,0,0,0-.7442-1.0322,3.5,3.5,0,0,0-1.1406-.708,4.2521,4.2521,0,0,0-1.56-.2637,4.0549,4.0549,0,0,0-1.62.3243,4.1046,4.1046,0,0,0-1.332.9121,4.1833,4.1833,0,0,0-.9,1.4033,4.7729,4.7729,0,0,0-.3242,1.7764v.288a4.8108,4.8108,0,0,0,.3242,1.8116,3.8277,3.8277,0,0,0,.9,1.3564,4.0486,4.0486,0,0,0,1.3438.8516,4.5077,4.5077,0,0,0,1.6562.3,4.0021,4.0021,0,0,0,1.5479-.2754,3.6622,3.6622,0,0,0,1.1279-.7207,3.41,3.41,0,0,0,.7441-1.0195,4.2535,4.2535,0,0,0,.3721-1.1993Z" style="fill: #7b0a52"/>
    <path d="M780.584,300.4238a4.2232,4.2232,0,0,0,1.1035,2.8555,3.7923,3.7923,0,0,0,2.8809,1.08,4.9954,4.9954,0,0,0,1.4628-.1914A3.4041,3.4041,0,0,0,787.1,303.64a2.8694,2.8694,0,0,0,.7207-.78,4.421,4.421,0,0,0,.4434-.9473l1.7763.4795a5.25,5.25,0,0,1-1.86,2.7,5.8549,5.8549,0,0,1-3.66,1.0439,6.02,6.02,0,0,1-2.34-.4443,5.232,5.232,0,0,1-1.8359-1.26,5.83,5.83,0,0,1-1.1993-1.9433,6.906,6.906,0,0,1-.4326-2.4961v-.5762a6.0471,6.0471,0,0,1,.4443-2.3281,5.479,5.479,0,0,1,1.2364-1.8594,5.7842,5.7842,0,0,1,1.8594-1.2246,5.9763,5.9763,0,0,1,2.3164-.4443,5.5569,5.5569,0,0,1,2.5312.54,5.6479,5.6479,0,0,1,1.752,1.332,5.224,5.224,0,0,1,1.0078,1.7286,5.2844,5.2844,0,0,1,.3242,1.7275v1.5361Zm3.9844-5.0879a4.2388,4.2388,0,0,0-1.4766.252,3.7367,3.7367,0,0,0-2.04,1.7754,3.9292,3.9292,0,0,0-.42,1.332h7.6807a3.4653,3.4653,0,0,0-.373-1.3916,3.384,3.384,0,0,0-.84-1.0557,3.884,3.884,0,0,0-1.1758-.6718A3.9334,3.9334,0,0,0,784.5684,295.3359Z" style="fill: #7b0a52"/>
    <path d="M804.5361,305.8h-3.6728l-1.56-15.9365h-.2881L797.4561,305.8h-3.6729L792.08,289h1.8242l1.6074,15.9355H795.8L797.3125,289h3.6953l1.5117,15.9355h.2891L804.416,289H806.24Z" style="fill: #7b0a52"/>
    <path d="M808.88,304.0723h4.1758V295.624h-3.7432v-1.7275h5.6152v10.1758h3.8887V305.8H808.88Zm3.4082-13.7285a1.6788,1.6788,0,1,1,.4912,1.1874A1.6172,1.6172,0,0,1,812.2881,290.3438Z" style="fill: #7b0a52"/>
    <path d="M832.4961,303.9756h-.2881a3.4886,3.4886,0,0,1-.7314.96,4.3381,4.3381,0,0,1-.961.6719,4.6267,4.6267,0,0,1-1.0918.3965,4.9444,4.9444,0,0,1-1.1035.1318,6.0233,6.0233,0,0,1-2.2324-.4072,5.2529,5.2529,0,0,1-3.0361-3.084,7.141,7.141,0,0,1-.4444-2.6045v-.3838a6.88,6.88,0,0,1,.4571-2.58,5.6958,5.6958,0,0,1,1.2236-1.92,5.1728,5.1728,0,0,1,1.8-1.1884,5.8735,5.8735,0,0,1,2.1836-.4082,5.0218,5.0218,0,0,1,2.293.54,3.6934,3.6934,0,0,1,1.6435,1.668h.2881V289h1.8711v16.8h-1.8711Zm-3.9844.3838a3.8831,3.8831,0,0,0,1.5606-.3115,3.77,3.77,0,0,0,1.26-.8877,4.2387,4.2387,0,0,0,.8516-1.3809,4.8969,4.8969,0,0,0,.3125-1.7871v-.2891a4.8439,4.8439,0,0,0-.3125-1.7636,4.2435,4.2435,0,0,0-.8516-1.38,3.88,3.88,0,0,0-1.2715-.8994,3.7741,3.7741,0,0,0-1.5488-.3243,3.9514,3.9514,0,0,0-1.5722.3125,3.7155,3.7155,0,0,0-1.2715.8868,4.1016,4.1016,0,0,0-.84,1.3691,4.8808,4.8808,0,0,0-.3008,1.7519v.3838a5.0272,5.0272,0,0,0,.3008,1.8,3.9548,3.9548,0,0,0,.84,1.3555,3.67,3.67,0,0,0,1.26.8643A4.0761,4.0761,0,0,0,828.5117,304.3594Z" style="fill: #7b0a52"/>
    <path d="M837.5605,293.8965h3.7432V289h1.8721v4.8965h4.6074v1.7275h-4.6074v7.7276q0,.7206.6484.7207h3.3838V305.8h-4.0557a1.7773,1.7773,0,0,1-1.332-.5283,1.8383,1.8383,0,0,1-.5166-1.3438V295.624h-3.7432Z" style="fill: #7b0a52"/>
    <path d="M854.5273,305.8h-1.8711V289h1.8711v7.0557h.2891a4.4688,4.4688,0,0,1,1.5469-1.8233A4.2554,4.2554,0,0,1,858.8,293.56a4.1441,4.1441,0,0,1,3.1563,1.2842,5.4274,5.4274,0,0,1,1.2119,3.8515V305.8h-1.8721v-6.72a4.096,4.096,0,0,0-.84-2.8086,2.9139,2.9139,0,0,0-2.28-.9356A3.3,3.3,0,0,0,855.5,296.5a4.69,4.69,0,0,0-.9727,3.1074Z" style="fill: #7b0a52"/>
    <path d="M870.92,295.24a1.68,1.68,0,1,1,.4922,1.1875A1.6183,1.6183,0,0,1,870.92,295.24Zm0,9.2149a1.6788,1.6788,0,1,1,.4922,1.1894A1.6193,1.6193,0,0,1,870.92,304.4551Z" style="fill: #7b0a52"/>
    <path d="M896.3594,289h11.2324v2.9277l-7.08,10.7041a11.7992,11.7992,0,0,0-.7676,1.3194,2.5828,2.5828,0,0,0-.2636,1.1289v.72h-1.9688v-.8643a3.79,3.79,0,0,1,.084-.8164,4.005,4.005,0,0,1,.2637-.7793,7.5455,7.5455,0,0,1,.457-.84c.1836-.2959.4033-.6367.66-1.0195l6.8867-10.32v-.2891h-9.5039Z" style="fill: #7b0a52"/>
    <path d="M911.1914,297.88V289h10.5117v1.8711H913.16v6h.2871a4.5243,4.5243,0,0,1,.625-.9238,4.257,4.257,0,0,1,.8994-.7793,4.6885,4.6885,0,0,1,1.164-.54,4.7953,4.7953,0,0,1,1.44-.2041,5.7468,5.7468,0,0,1,2.123.3838,4.8431,4.8431,0,0,1,1.668,1.08,4.963,4.963,0,0,1,1.0928,1.6807,5.8076,5.8076,0,0,1,.3955,2.1836v.4316a6.6471,6.6471,0,0,1-.3838,2.2676,5.6754,5.6754,0,0,1-1.1279,1.8965,5.2705,5.2705,0,0,1-1.8477,1.3085,6.3421,6.3421,0,0,1-2.5449.4795,7.1912,7.1912,0,0,1-2.5918-.4326,5.3247,5.3247,0,0,1-1.8955-1.1992,5.0726,5.0726,0,0,1-1.1641-1.8125,6.3239,6.3239,0,0,1-.3955-2.2676v-.6718H912.92v.5273a3.8026,3.8026,0,0,0,1.1153,2.9883,4.2164,4.2164,0,0,0,2.916.9961,3.8974,3.8974,0,0,0,1.6933-.3477,3.5812,3.5812,0,0,0,1.2227-.9355,3.8935,3.8935,0,0,0,.7324-1.3692,5.46,5.46,0,0,0,.24-1.6191v-.1445a3.8119,3.8119,0,0,0-.2519-1.3926,3.5259,3.5259,0,0,0-.6963-1.127,3.1643,3.1643,0,0,0-1.0791-.7558,3.4426,3.4426,0,0,0-1.3809-.2764,2.8378,2.8378,0,0,0-.9238.1436,2.7172,2.7172,0,0,0-.7324.373,2.2457,2.2457,0,0,0-.5156.5156,1.73,1.73,0,0,0-.2754.5518Z" style="fill: #7b0a52"/>
    <path d="M925.4473,295.5273a7.4906,7.4906,0,0,1,1.56-5.0634,6.1416,6.1416,0,0,1,8.6875,0,7.4854,7.4854,0,0,1,1.5606,5.0634v3.7442a7.453,7.453,0,0,1-1.5606,5.1123,6.261,6.261,0,0,1-8.6875,0,7.458,7.458,0,0,1-1.56-5.1123Zm5.9043,8.7852a3.3525,3.3525,0,0,0,2.916-1.3574,6.4843,6.4843,0,0,0,.9726-3.8272v-3.456a8.5446,8.5446,0,0,0-.24-2.1,4.7767,4.7767,0,0,0-.7324-1.6328,3.51,3.51,0,0,0-1.2237-1.0684,3.9562,3.9562,0,0,0-3.3955,0,3.5383,3.5383,0,0,0-1.2129,1.0684,4.7767,4.7767,0,0,0-.7324,1.6328,8.5511,8.5511,0,0,0-.2392,2.1v3.456a6.4845,6.4845,0,0,0,.9716,3.8272A3.3538,3.3538,0,0,0,931.3516,304.3125ZM929.8164,297.4a1.554,1.554,0,1,1,.4551,1.08A1.4761,1.4761,0,0,1,929.8164,297.4Z" style="fill: #7b0a52"/>
  </g>
  <path d="M1146,352a2.0023,2.0023,0,0,1,2,2V696a2.0023,2.0023,0,0,1-2,2H679a2.0023,2.0023,0,0,1-2-2V354a2.0023,2.0023,0,0,1,2-2h467m0-2H679a4,4,0,0,0-4,4V696a4,4,0,0,0,4,4h467a4,4,0,0,0,4-4V354a4,4,0,0,0-4-4Z" style="fill: #7b0a52"/>
  <g>
    <path d="M693.0566,373.8877V380.8H691.04V364h6a6.247,6.247,0,0,1,2.2559.3711,4.6779,4.6779,0,0,1,1.5967.9961,4.1029,4.1029,0,0,1,.959,1.4531,4.71,4.71,0,0,1,.3242,1.7393v.72a4.7983,4.7983,0,0,1-.3242,1.7519,4.1,4.1,0,0,1-.9717,1.4766,4.6645,4.6645,0,0,1-1.6084,1.0078,6.1507,6.1507,0,0,1-2.2315.3721Zm0-1.8721H696.8q3.36,0,3.36-2.88v-.4326a2.6863,2.6863,0,0,0-.8282-2.0508,3.5807,3.5807,0,0,0-2.5322-.7812h-3.7432Z" style="fill: #7b0a52"/>
    <path d="M714.416,378.7832h-.2881a3.8994,3.8994,0,0,1-1.5957,1.7764,4.31,4.31,0,0,1-2.1484.5761A5.9229,5.9229,0,0,1,708.2,380.74a4.959,4.959,0,0,1-1.7647-1.1757,5.5656,5.5656,0,0,1-1.1875-1.9083,7.29,7.29,0,0,1-.4316-2.6162v-.3838a7.2116,7.2116,0,0,1,.4316-2.5917,5.5561,5.5561,0,0,1,1.1875-1.9083,5.0973,5.0973,0,0,1,1.7647-1.1884,5.6277,5.6277,0,0,1,2.1357-.4082,4.59,4.59,0,0,1,2.2207.54,3.7951,3.7951,0,0,1,1.5713,1.668h.2881v-1.8711h1.8721v9.4551q0,.7206.6474.7207h.6006V380.8h-1.2724a1.779,1.779,0,0,1-1.3321-.5283,1.8416,1.8416,0,0,1-.5156-1.3438Zm-3.84.5762a3.7956,3.7956,0,0,0,1.5478-.3115,3.4314,3.4314,0,0,0,1.2119-.8877,4.2506,4.2506,0,0,0,.792-1.3809,5.2532,5.2532,0,0,0,.2881-1.7871v-.2891a5.1953,5.1953,0,0,0-.2881-1.7636,4.142,4.142,0,0,0-.8037-1.38A3.6735,3.6735,0,0,0,712.1,370.66a3.6063,3.6063,0,0,0-1.5234-.3243,3.697,3.697,0,0,0-1.5362.3125,3.6476,3.6476,0,0,0-1.2119.875,4.0153,4.0153,0,0,0-.8047,1.3682,5.2134,5.2134,0,0,0-.2871,1.7646v.3838a4.4646,4.4646,0,0,0,1.0684,3.18A3.6184,3.6184,0,0,0,710.5762,379.3594Z" style="fill: #7b0a52"/>
    <path d="M720.0566,368.8965H723.8V364h1.8721v4.8965h4.6074v1.7275h-4.6074v7.7276q0,.7206.6484.7207h3.3838V380.8h-4.0557a1.7773,1.7773,0,0,1-1.332-.5283,1.8383,1.8383,0,0,1-.5166-1.3438V370.624h-3.7432Z" style="fill: #7b0a52"/>
    <path d="M737.0234,380.8h-1.8711V364h1.8711v7.0557h.2891a4.4688,4.4688,0,0,1,1.5469-1.8233,4.2554,4.2554,0,0,1,2.4365-.6728,4.1437,4.1437,0,0,1,3.1562,1.2842,5.427,5.427,0,0,1,1.212,3.8515V380.8H743.792v-6.72a4.0955,4.0955,0,0,0-.84-2.8086,2.9135,2.9135,0,0,0-2.28-.9356,3.3,3.3,0,0,0-2.6758,1.1641,4.69,4.69,0,0,0-.9727,3.1074Z" style="fill: #7b0a52"/>
    <path d="M753.416,370.24a1.68,1.68,0,1,1,.4922,1.1875A1.6183,1.6183,0,0,1,753.416,370.24Zm0,9.2149a1.6788,1.6788,0,1,1,.4922,1.1894A1.6193,1.6193,0,0,1,753.416,379.4551Z" style="fill: #7b0a52"/>
  </g>
  <line x1="575" y1="350" x2="625" y2="350" style="fill: none;stroke: #313131;stroke-miterlimit: 10;stroke-width: 4px"/>
  <polyline points="600 325 625 350 600 375" style="fill: none;stroke: #313131;stroke-miterlimit: 10;stroke-width: 4px"/>
</svg>
